HIERARCHY
ROOT Hips
{
	OFFSET 0.00000 0.00000 0.00000
	CHANNELS 6 Xposition Yposition Zposition Zrotation Yrotation Xrotation 
	JOINT LHipJoint
	{
		OFFSET 0 0 0
		CHANNELS 3 Zrotation Yrotation Xrotation
		JOINT LeftUpLeg
		{
			OFFSET 1.56857 -1.73443 1.15205
			CHANNELS 3 Zrotation Yrotation Xrotation
			JOINT LeftLeg
			{
				OFFSET 2.39362 -6.57643 0.00000
				CHANNELS 3 Zrotation Yrotation Xrotation
				JOINT LeftFoot
				{
					OFFSET 2.50952 -6.89485 0.00000
					CHANNELS 3 Zrotation Yrotation Xrotation
					JOINT LeftToeBase
					{
						OFFSET 0.17171 -0.47178 1.88682
						CHANNELS 3 Zrotation Yrotation Xrotation
						End Site
						{
							OFFSET 0.00000 -0.00000 0.98146
						}
					}
				}
			}
		}
	}
	JOINT RHipJoint
	{
		OFFSET 0 0 0
		CHANNELS 3 Zrotation Yrotation Xrotation
		JOINT RightUpLeg
		{
			OFFSET -1.28153 -1.73443 1.15205
			CHANNELS 3 Zrotation Yrotation Xrotation
			JOINT RightLeg
			{
				OFFSET -2.26861 -6.23296 0.00000
				CHANNELS 3 Zrotation Yrotation Xrotation
				JOINT RightFoot
				{
					OFFSET -2.54143 -6.98254 0.00000
					CHANNELS 3 Zrotation Yrotation Xrotation
					JOINT RightToeBase
					{
						OFFSET -0.23309 -0.64041 1.93119
						CHANNELS 3 Zrotation Yrotation Xrotation
						End Site
						{
							OFFSET -0.00000 -0.00000 1.02013
						}
					}
				}
			}
		}
	}
	JOINT LowerBack
	{
		OFFSET 0 0 0
		CHANNELS 3 Zrotation Yrotation Xrotation
		JOINT Spine
		{
			OFFSET -0.07096 2.10460 -0.27878
			CHANNELS 3 Zrotation Yrotation Xrotation
			JOINT Spine1
			{
				OFFSET -0.00826 2.13662 -0.08279
				CHANNELS 3 Zrotation Yrotation Xrotation
				JOINT Neck
				{
					OFFSET 0 0 0
					CHANNELS 3 Zrotation Yrotation Xrotation
					JOINT Neck1
					{
						OFFSET 0.03239 1.77799 0.24435
						CHANNELS 3 Zrotation Yrotation Xrotation
						JOINT Head
						{
							OFFSET 0.01026 1.74194 -0.49664
							CHANNELS 3 Zrotation Yrotation Xrotation
							End Site
							{
								OFFSET 0.00170 1.83057 -0.19653
							}
						}
					}
				}
				JOINT LeftShoulder
				{
					OFFSET 0 0 0
					CHANNELS 3 Zrotation Yrotation Xrotation
					JOINT LeftArm
					{
						OFFSET 3.19178 1.35907 -0.31412
						CHANNELS 3 Zrotation Yrotation Xrotation
						JOINT LeftForeArm
						{
							OFFSET 4.85247 -0.00000 -0.00000
							CHANNELS 3 Zrotation Yrotation Xrotation
							JOINT LeftHand
							{
								OFFSET 3.55584 -0.00000 0.00000
								CHANNELS 3 Zrotation Yrotation Xrotation
								JOINT LeftFingerBase
								{
									OFFSET 0 0 0
									CHANNELS 3 Zrotation Yrotation Xrotation
									JOINT LeftHandIndex1
									{
										OFFSET 0.69320 -0.00000 0.00000
										CHANNELS 3 Zrotation Yrotation Xrotation
										End Site
										{
											OFFSET 0.55888 -0.00000 0.00000
										}
									}
								}
								JOINT LThumb
								{
									OFFSET 0 0 0
									CHANNELS 3 Zrotation Yrotation Xrotation
									End Site
									{
										OFFSET 0.56741 -0.00000 0.56741
									}
								}
							}
						}
					}
				}
				JOINT RightShoulder
				{
					OFFSET 0 0 0
					CHANNELS 3 Zrotation Yrotation Xrotation
					JOINT RightArm
					{
						OFFSET -3.28999 1.24191 -0.26899
						CHANNELS 3 Zrotation Yrotation Xrotation
						JOINT RightForeArm
						{
							OFFSET -4.64462 -0.00000 0.00000
							CHANNELS 3 Zrotation Yrotation Xrotation
							JOINT RightHand
							{
								OFFSET -3.40703 -0.00000 0.00000
								CHANNELS 3 Zrotation Yrotation Xrotation
								JOINT RightFingerBase
								{
									OFFSET 0 0 0
									CHANNELS 3 Zrotation Yrotation Xrotation
									JOINT RightHandIndex1
									{
										OFFSET -0.61958 -0.00000 0.00000
										CHANNELS 3 Zrotation Yrotation Xrotation
										End Site
										{
											OFFSET -0.49952 -0.00000 0.00000
										}
									}
								}
								JOINT RThumb
								{
									OFFSET 0 0 0
									CHANNELS 3 Zrotation Yrotation Xrotation
									End Site
									{
										OFFSET -0.50715 -0.00000 0.50715
									}
								}
							}
						}
					}
				}
			}
		}
	}
}
MOTION
Frames: 9
Frame Time: .0083333
-17.6114 15.9222 -0.1429 79.7040 79.6294 96.6980 0.0000 0.0000 0.0000 -32.1831 0.4343 8.6093 3.8990 12.0248 35.8198 -0.0486 3.9252 -1.0239 0.0997 -2.0358 -5.6045 0.0000 0.0000 0.0000 7.0563 8.5582 -42.7088 -8.7244 -16.6271 55.1320 -2.6063 2.8851 -29.8386 -0.1061 2.1004 -5.7832 -11.9351 -0.6584 15.9984 0.4859 -2.4444 4.7006 7.7271 -1.1066 -3.3274 5.5435 5.6880 -24.7895 -7.0723 7.1536 11.8491 -2.2699 2.9384 8.1410 0.0000 0.0000 0.0000 -80.0133 7.7532 65.5904 112.1613 -58.0604 -79.0673 -0.0000 0.0000 -9.9447 47.0127 -34.5275 -31.3034 -7.1250 0.0000 -0.0000 7.3979 -14.9512 -9.1210 0.0000 0.0000 0.0000 64.5045 -43.9095 56.1047 -75.9366 59.2393 -47.8519 0.0000 -0.0000 -26.8073 -31.7607 -25.5391 14.9439 7.1250 -0.0000 -0.0000 -2.3953 -59.2983 0.8369
-17.3661 15.8765 -0.1481 77.9898 80.0819 94.7095 0.0000 0.0000 0.0000 -31.7045 0.3387 6.6746 5.0079 13.3927 40.8568 -0.0585 4.2875 -1.5315 0.1302 -2.3263 -6.4083 0.0000 0.0000 0.0000 7.7834 9.1369 -40.8410 -8.5841 -16.5325 54.6404 -2.7670 3.2159 -30.7100 -0.1157 2.1934 -6.0405 -11.2769 -0.3128 16.7697 0.6388 -1.9801 4.6548 7.4713 -0.8392 -3.9184 5.5718 5.5295 -24.6134 -7.2576 6.9501 11.3899 -2.3704 2.8381 7.9537 -0.0000 -0.0000 0.0000 -79.9798 9.1494 65.7283 110.2222 -58.3970 -77.4187 -0.0000 0.0000 -10.6094 45.4553 -34.2139 -29.7390 -7.1250 0.0000 -0.0000 6.7000 -13.8653 -8.1587 -0.0000 -0.0000 0.0000 65.6639 -42.2957 54.7225 -77.0655 59.3583 -48.8225 0.0000 -0.0000 -26.5920 -31.9100 -26.2164 15.3805 7.1250 -0.0000 -0.0000 -2.3868 -60.0811 0.8785
-17.1217 15.8212 -0.1529 75.5377 80.8503 91.9320 0.0000 0.0000 0.0000 -30.7615 0.4729 4.6809 6.2498 14.6661 45.9762 -0.0634 4.4981 -2.2522 0.2065 -2.9261 -8.0731 0.0000 0.0000 0.0000 9.0137 9.8184 -39.0530 -8.5706 -16.5233 54.5930 -2.9610 3.6168 -31.7314 -0.1194 2.2278 -6.1357 -10.5206 -0.0231 17.0707 0.9466 -1.4618 4.9707 7.2818 -0.5978 -3.8637 5.7626 5.4354 -24.4415 -7.6318 6.7934 10.5200 -2.5524 2.7578 7.6466 -0.0000 0.0000 0.0000 -80.3732 9.9466 65.3521 107.4881 -58.8123 -75.0847 -0.0000 0.0000 -11.1606 43.5155 -33.3315 -27.5520 -7.1250 0.0000 -0.0000 5.9621 -12.0238 -7.1076 -0.0000 0.0000 0.0000 66.7412 -39.6471 53.3615 -77.1537 59.3672 -48.8984 0.0000 -0.0000 -26.7059 -32.1055 -26.0151 15.3868 7.1250 -0.0000 -0.0000 -2.6779 -59.9093 0.9748
-16.8768 15.7579 -0.1615 71.1670 81.8463 87.1190 0.0000 0.0000 0.0000 -29.4916 0.8412 2.6882 7.5926 15.8113 51.0816 -0.0636 4.6170 -2.9146 0.2008 -2.8855 -7.9601 0.0000 0.0000 0.0000 10.6592 10.7393 -37.2175 -8.6581 -16.5826 54.9002 -2.9464 2.5163 -31.8859 -0.6158 5.0224 -13.9724 -9.4721 0.3099 17.6095 1.2834 -0.8656 5.1884 6.9421 -0.3002 -4.0576 5.9350 5.3744 -24.0459 -7.9368 6.6818 9.6104 -2.7031 2.7113 7.2925 -0.0000 0.0000 0.0000 -80.7611 10.9572 64.8752 104.5978 -59.1793 -72.6072 -0.0000 0.0000 -11.9392 41.1992 -32.3910 -25.1243 -7.1250 0.0000 -0.0000 5.0060 -10.0200 -5.8209 -0.0000 0.0000 0.0000 67.7959 -37.0015 52.0904 -76.7484 59.3260 -48.5498 0.0000 -0.0000 -26.4809 -31.9722 -25.5100 15.0466 7.1250 -0.0000 -0.0000 -2.6536 -59.3188 0.9285
-16.6394 15.6875 -0.1721 65.1810 83.1558 80.8034 0.0000 0.0000 0.0000 -27.7192 1.1619 0.3308 9.0964 16.8693 56.4228 -0.0503 4.3051 -3.3330 0.2360 -3.1266 -8.6313 0.0000 0.0000 0.0000 12.7826 11.6021 -35.6452 -8.7516 -16.6452 55.2270 -3.1796 3.0451 -33.0529 -0.3942 4.0313 -11.1649 -7.9631 0.6037 18.1552 1.6679 -0.2351 5.2947 6.3711 0.0201 -4.3741 5.9358 5.2416 -23.6154 -8.0029 6.4917 8.7600 -2.7570 2.6427 6.9336 -0.0000 -0.0000 0.0000 -81.0870 12.0824 64.2102 101.6804 -59.4782 -70.0978 -0.0000 0.0000 -13.3638 38.3330 -31.6814 -22.5514 -7.1250 0.0000 -0.0000 3.6484 -8.1461 -4.1364 -0.0000 -0.0000 0.0000 68.7807 -34.4985 51.0023 -77.2812 59.3798 -49.0082 0.0000 -0.0000 -26.2657 -32.3454 -26.1801 15.6104 7.1250 -0.0000 -0.0000 -2.9222 -60.1522 1.0808
-16.4064 15.6172 -0.1810 54.3973 84.7715 69.7246 0.0000 0.0000 0.0000 -25.3212 1.5974 -2.2526 10.6885 17.7792 61.7657 -0.0310 3.6650 -3.3828 0.3119 -3.5901 -9.9263 0.0000 0.0000 0.0000 15.5334 12.2608 -34.0118 -8.7838 -16.6665 55.3393 -3.4073 4.0980 -34.0540 -0.1364 2.3802 -6.5576 -6.0287 0.8889 18.7141 2.1825 0.4922 5.4075 5.6606 0.3836 -4.6793 5.7708 5.0129 -23.4520 -7.9076 6.1957 8.0480 -2.7414 2.5235 6.6448 -0.0000 -0.0000 0.0000 -81.5282 13.1394 63.6209 97.6103 -59.7800 -66.5858 -0.0000 0.0000 -13.0192 37.3562 -30.0525 -20.9208 -7.1250 0.0000 -0.0000 3.5112 -6.0097 -3.8664 -0.0000 -0.0000 0.0000 69.6121 -31.9789 50.0500 -78.5836 59.5018 -50.1297 0.0000 -0.0000 -26.4469 -33.3712 -27.5515 16.9438 7.1250 -0.0000 -0.0000 -3.8093 -61.9335 1.5703
-16.1775 15.5460 -0.1866 31.3670 86.1854 46.3399 0.0000 0.0000 0.0000 -22.5217 2.1991 -4.8483 12.2659 18.5008 66.8293 -0.0115 2.7567 -3.1310 0.2946 -3.4899 -9.6458 0.0000 0.0000 0.0000 18.6932 12.9464 -32.1263 -8.7966 -16.6750 55.3841 -3.5483 4.3887 -34.7330 -0.1328 2.3492 -6.4718 -3.9261 1.1471 19.3762 2.7987 1.2514 5.5132 4.9415 0.7610 -5.0093 5.6200 4.8361 -23.3276 -7.8486 5.9783 7.5011 -2.7284 2.4347 6.4253 -0.0000 0.0000 0.0000 -82.2451 14.1341 62.5269 93.2907 -59.9590 -62.8494 -0.0000 0.0000 -13.2047 35.5314 -29.2368 -19.2283 -7.1250 0.0000 -0.0000 2.6754 -4.5065 -2.8804 -0.0000 0.0000 0.0000 70.2341 -29.2267 49.3487 -79.4935 59.5788 -50.9139 0.0000 -0.0000 -26.4626 -34.0941 -28.7034 18.0093 7.1250 -0.0000 -0.0000 -4.4037 -63.4007 1.9678
-15.9403 15.4749 -0.1923 -5.3173 86.5950 9.0756 0.0000 0.0000 0.0000 -19.6155 2.7963 -7.2471 13.8362 19.0636 71.7036 0.0096 1.2898 -2.7746 0.2807 -3.4078 -9.4162 0.0000 0.0000 0.0000 21.9465 13.4561 -29.7523 -8.7185 -16.6231 55.1112 -3.6374 3.9681 -35.2665 -0.2030 2.9013 -8.0041 -1.7647 1.3023 20.2307 3.3968 1.9268 5.5749 4.1749 1.0960 -5.4333 5.5613 4.7078 -22.9720 -7.7649 5.8088 7.1138 -2.7175 2.3737 6.2285 0.0000 -0.0000 0.0000 -82.9716 15.5352 61.0217 89.1592 -59.9973 -59.2719 -0.0000 0.0000 -14.1146 33.2354 -28.8850 -17.5640 -7.1250 0.0000 -0.0000 1.4458 -3.4187 -1.5299 0.0000 -0.0000 0.0000 70.8538 -26.3492 48.9046 -80.3069 59.6420 -51.6156 0.0000 -0.0000 -26.2708 -34.2484 -29.9235 18.7591 7.1250 -0.0000 -0.0000 -4.2154 -64.7828 2.0194
-15.6949 15.4099 -0.1977 -37.7912 85.8941 -24.1081 0.0000 0.0000 0.0000 -16.6876 3.1467 -9.6428 15.4441 19.4949 76.5709 0.0106 -1.0547 -1.8614 0.2443 -3.1809 -8.7828 0.0000 0.0000 0.0000 25.1164 13.4098 -27.1180 -8.5040 -16.4778 54.3586 -3.6904 3.8716 -35.5535 -0.2061 2.9234 -8.0656 0.4720 1.3207 21.0962 3.9052 2.4925 5.8645 3.2879 1.3740 -5.5597 5.7537 4.6463 -23.5955 -7.7615 5.6456 7.0816 -2.7619 2.2913 6.3067 0.0000 0.0000 0.0000 -83.3938 16.5719 59.4094 85.1507 -59.9110 -55.8016 -0.0000 0.0000 -15.6218 31.1561 -28.5970 -16.1393 -7.1250 0.0000 -0.0000 0.3090 -2.5184 -0.3223 0.0000 0.0000 0.0000 71.7283 -22.9901 48.2385 -80.9830 59.6905 -52.1991 0.0000 -0.0000 -26.0521 -34.0555 -29.0174 18.1529 7.1250 -0.0000 -0.0000 -4.2554 -63.7350 1.9347
